# xmcd
#
# Track frame offsets: 
#        150
#        68703
#        101596
#        130223
#        167177
#        200895
#        234885
#
# Disc length: 3578 seconds
#
# Revision: 0
# Processed by: cddbd v1.5.2PL0 Copyright (c) Steve Scherf et al.
# Submitted via: ExactAudioCopy v0.99pb4
#
DISCID=5e0df807
DTITLE=Zvezdny Maestro - Buhta Solnca
DYEAR=2008
DGENRE=Trance
TTITLE0=Maria-Vals
TTITLE1=Buhta_solnca
TTITLE2=Kosmos_russki
TTITLE3=Lavry_pecherskie
TTITLE4=Dvoe(remix)
TTITLE5=Vsetsaritsa
TTITLE6=Zamok_belyh_rytsarei
EXTD=
EXTT0=
EXTT1=
EXTT2=
EXTT3=
EXTT4=
EXTT5=
EXTT6=
PLAYORDER=
